<svg width="232" height="207" viewBox="0 0 232 207" fill="none" xmlns="http://www.w3.org/2000/svg">
<path d="M186.885 0H45.1071C43.496 0 41.9655 0.804688 41.0793 2.17266L0.801571 61.3977C-0.366484 63.168 -0.245651 65.5016 1.08352 67.1109L112.25 204.23C114.184 206.604 117.809 206.604 119.742 204.23L230.909 67.1109C232.238 65.4613 232.359 63.168 231.19 61.3977L190.953 2.17266C190.027 0.804688 188.536 0 186.885 0ZM179.111 19.3125L204.607 57.9375H177.057L156.234 19.3125H179.111V19.3125ZM97.7099 19.3125H134.242L155.065 57.9375H76.9266L97.7099 19.3125ZM52.8807 19.3125H75.7585L54.9349 57.9375H27.3849L52.8807 19.3125ZM35.5613 77.25H56.2641L83.7738 141.625L35.5613 77.25V77.25ZM77.0071 77.25H154.985L115.996 175.14L77.0071 77.25V77.25ZM148.218 141.625L175.688 77.25H196.39L148.218 141.625Z"/>
</svg>
