<svg width="12" height="12" viewBox="0 0 12 12" fill="none" xmlns="http://www.w3.org/2000/svg">
<path d="M3.54105 5.6727L0.420949 2.55573C0.0380688 2.17324 0.0380688 1.55308 0.420949 1.17027L1.11437 0.477546C1.49725 0.0950499 2.11803 0.0950499 2.50122 0.477546L5.62132 3.59451L8.74142 0.477546C9.1243 0.0950499 9.74508 0.0950499 10.1283 0.477546L10.8217 1.17027C11.2046 1.55277 11.2046 2.17292 10.8217 2.55573L7.7016 5.6727L10.8217 8.78967C11.2046 9.17216 11.2046 9.79232 10.8217 10.1751L10.1283 10.8679C9.74539 11.2503 9.1243 11.2503 8.74142 10.8679L5.62132 7.75089L2.50122 10.8679C2.11834 11.2503 1.49725 11.2503 1.11437 10.8679L0.420949 10.1751C0.0380688 9.79263 0.0380688 9.17247 0.420949 8.78967L3.54105 5.6727Z" />
</svg>
