<svg width="418" height="546" viewBox="0 0 418 546" fill="none" xmlns="http://www.w3.org/2000/svg">
<g filter="url(#filter0_d)">
<g clip-path="url(#clip0)">
<path d="M189.268 519.67C43.97 309.031 17 287.413 17 210C17 103.961 102.961 18 209 18C315.039 18 401 103.961 401 210C401 287.413 374.03 309.031 228.732 519.67C219.197 533.444 198.802 533.443 189.268 519.67Z" fill="#BC0BBD"/>
<path d="M296 159.157C296 192.38 269.067 219.312 235.844 219.312C232.009 219.312 228.259 218.95 224.624 218.264L216.416 227.497C215.647 228.363 214.702 229.056 213.646 229.53C212.589 230.005 211.444 230.25 210.285 230.25H197.562V243.922C197.562 248.452 193.89 252.125 189.359 252.125H175.688V265.797C175.688 270.327 172.015 274 167.484 274H129.203C124.673 274 121 270.327 121 265.797V239.117C121 236.941 121.864 234.854 123.402 233.316L178.706 178.013C176.75 172.081 175.688 165.743 175.688 159.156C175.688 125.933 202.62 99.0003 235.843 99C269.165 98.9997 296 125.835 296 159.157ZM235.844 142.75C235.844 151.811 243.189 159.156 252.25 159.156C261.311 159.156 268.656 151.811 268.656 142.75C268.656 133.689 261.311 126.344 252.25 126.344C243.189 126.344 235.844 133.689 235.844 142.75Z" fill="white"/>
</g>
</g>
<defs>
<filter id="filter0_d" x="0" y="0" width="418" height="546" filterUnits="userSpaceOnUse" color-interpolation-filters="sRGB">
<feFlood flood-opacity="0" result="BackgroundImageFix"/>
<feColorMatrix in="SourceAlpha" type="matrix" values="0 0 0 0 0 0 0 0 0 0 0 0 0 0 0 0 0 0 127 0"/>
<feOffset dy="-1"/>
<feGaussianBlur stdDeviation="8.5"/>
<feColorMatrix type="matrix" values="0 0 0 0 0 0 0 0 0 0 0 0 0 0 0 0 0 0 0.25 0"/>
<feBlend mode="normal" in2="BackgroundImageFix" result="effect1_dropShadow"/>
<feBlend mode="normal" in="SourceGraphic" in2="effect1_dropShadow" result="shape"/>
</filter>
<clipPath id="clip0">
<rect x="17" y="18" width="384" height="512" fill="white"/>
</clipPath>
</defs>
</svg>
