<svg width="175" height="175" viewBox="0 0 175 175" fill="none" xmlns="http://www.w3.org/2000/svg">
<path d="M175 60.1566C175 93.3799 148.067 120.312 114.844 120.312C111.009 120.312 107.259 119.95 103.624 119.264L95.4164 128.497C94.6468 129.363 93.7025 130.056 92.6457 130.53C91.5889 131.005 90.4436 131.25 89.2852 131.25H76.5625V144.922C76.5625 149.452 72.8899 153.125 68.3594 153.125H54.6875V166.797C54.6875 171.327 51.0149 175 46.4844 175H8.20312C3.67261 175 0 171.327 0 166.797V140.117C0 137.941 0.864404 135.854 2.40249 134.316L57.7059 79.0125C55.7498 73.081 54.6875 66.743 54.6875 60.1562C54.6875 26.9329 81.6201 0.0003418 114.843 3.26504e-09C148.165 -0.000341794 175 26.8348 175 60.1566ZM114.844 43.75C114.844 52.811 122.189 60.1562 131.25 60.1562C140.311 60.1562 147.656 52.811 147.656 43.75C147.656 34.689 140.311 27.3438 131.25 27.3438C122.189 27.3438 114.844 34.689 114.844 43.75Z" />
</svg>
