<svg width="418" height="546" viewBox="0 0 418 546" fill="none" xmlns="http://www.w3.org/2000/svg">
<g filter="url(#filter0_d)">
<g clip-path="url(#clip0)">
<path d="M189.268 519.67C43.97 309.031 17 287.413 17 210C17 103.961 102.961 18 209 18C315.039 18 401 103.961 401 210C401 287.413 374.03 309.031 228.732 519.67C219.197 533.444 198.802 533.443 189.268 519.67Z" fill="#36335B"/>
<path d="M267.075 223.377H151.051C149.662 223.377 148.526 224.516 148.526 225.909L148.495 241.096C148.495 242.488 149.631 243.627 151.02 243.627H267.075C268.464 243.627 269.6 242.488 269.6 241.096V225.909C269.6 224.516 268.464 223.377 267.075 223.377ZM267.075 253.752H150.957C149.568 253.752 148.432 254.891 148.432 256.284L148.4 271.471C148.4 272.863 149.536 274.002 150.925 274.002H267.075C268.464 274.002 269.6 272.863 269.6 271.471V256.284C269.6 254.891 268.464 253.752 267.075 253.752ZM267.075 193.002H151.114C149.726 193.002 148.589 194.141 148.589 195.534L148.558 210.721C148.558 212.113 149.694 213.252 151.083 213.252H267.075C268.464 213.252 269.6 212.113 269.6 210.721V195.534C269.6 194.141 268.464 193.002 267.075 193.002ZM300.689 149.022L214.808 113.173C212.962 112.405 210.983 112.01 208.984 112.01C206.986 112.01 205.007 112.405 203.161 113.173L117.311 149.022C111.693 151.395 108 156.9 108 163.039V271.471C108 272.863 109.136 274.002 110.525 274.002H135.775C137.164 274.002 138.3 272.863 138.3 271.471V193.002C138.3 187.434 142.908 182.877 148.589 182.877H269.411C275.092 182.877 279.7 187.434 279.7 193.002V271.471C279.7 272.863 280.836 274.002 282.225 274.002H307.475C308.864 274.002 310 272.863 310 271.471V163.039C310 156.9 306.307 151.395 300.689 149.022Z" fill="white"/>
</g>
</g>
<defs>
<filter id="filter0_d" x="0" y="0" width="418" height="546" filterUnits="userSpaceOnUse" color-interpolation-filters="sRGB">
<feFlood flood-opacity="0" result="BackgroundImageFix"/>
<feColorMatrix in="SourceAlpha" type="matrix" values="0 0 0 0 0 0 0 0 0 0 0 0 0 0 0 0 0 0 127 0"/>
<feOffset dy="-1"/>
<feGaussianBlur stdDeviation="8.5"/>
<feColorMatrix type="matrix" values="0 0 0 0 0 0 0 0 0 0 0 0 0 0 0 0 0 0 0.25 0"/>
<feBlend mode="normal" in2="BackgroundImageFix" result="effect1_dropShadow"/>
<feBlend mode="normal" in="SourceGraphic" in2="effect1_dropShadow" result="shape"/>
</filter>
<clipPath id="clip0">
<rect x="17" y="18" width="384" height="512" fill="white"/>
</clipPath>
</defs>
</svg>
