<svg width="202" height="162" viewBox="0 0 202 162" fill="none" xmlns="http://www.w3.org/2000/svg">
<path d="M159.075 111.377H43.0513C41.6625 111.377 40.5262 112.516 40.5262 113.909L40.4947 129.096C40.4947 130.488 41.6309 131.627 43.0197 131.627H159.075C160.464 131.627 161.6 130.488 161.6 129.096V113.909C161.6 112.516 160.464 111.377 159.075 111.377ZM159.075 141.752H42.9566C41.5678 141.752 40.4316 142.891 40.4316 144.284L40.4 159.471C40.4 160.863 41.5363 162.002 42.925 162.002H159.075C160.464 162.002 161.6 160.863 161.6 159.471V144.284C161.6 142.891 160.464 141.752 159.075 141.752ZM159.075 81.0024H43.1144C41.7256 81.0024 40.5894 82.1414 40.5894 83.5336L40.5578 98.7211C40.5578 100.113 41.6941 101.252 43.0828 101.252H159.075C160.464 101.252 161.6 100.113 161.6 98.7211V83.5336C161.6 82.1414 160.464 81.0024 159.075 81.0024ZM192.689 37.0219L106.808 1.17307C104.962 0.405399 102.983 0.0102539 100.984 0.0102539C98.9857 0.0102539 97.0069 0.405399 95.1609 1.17307L9.31094 37.0219C3.69281 39.3949 0 44.9004 0 51.0387V159.471C0 160.863 1.13625 162.002 2.525 162.002H27.775C29.1638 162.002 30.3 160.863 30.3 159.471V81.0024C30.3 75.4336 34.9081 70.8774 40.5894 70.8774H161.411C167.092 70.8774 171.7 75.4336 171.7 81.0024V159.471C171.7 160.863 172.836 162.002 174.225 162.002H199.475C200.864 162.002 202 160.863 202 159.471V51.0387C202 44.9004 198.307 39.3949 192.689 37.0219Z" />
</svg>
