<svg width="40" height="32" viewBox="0 0 40 32" fill="none" xmlns="http://www.w3.org/2000/svg">
<path d="M1.42857 6.3125H38.5714C39.3604 6.3125 40 5.75289 40 5.0625V1.9375C40 1.24711 39.3604 0.6875 38.5714 0.6875H1.42857C0.639554 0.6875 0 1.24711 0 1.9375V5.0625C0 5.75289 0.639554 6.3125 1.42857 6.3125ZM1.42857 18.8125H38.5714C39.3604 18.8125 40 18.2529 40 17.5625V14.4375C40 13.7471 39.3604 13.1875 38.5714 13.1875H1.42857C0.639554 13.1875 0 13.7471 0 14.4375V17.5625C0 18.2529 0.639554 18.8125 1.42857 18.8125ZM1.42857 31.3125H38.5714C39.3604 31.3125 40 30.7529 40 30.0625V26.9375C40 26.2471 39.3604 25.6875 38.5714 25.6875H1.42857C0.639554 25.6875 0 26.2471 0 26.9375V30.0625C0 30.7529 0.639554 31.3125 1.42857 31.3125Z" fill="#9B9B9B"/>
</svg>
