<svg width="157" height="19" viewBox="0 0 157 19" fill="none" xmlns="http://www.w3.org/2000/svg">
<path d="M13.936 14.736H6.832L5.512 18H0.664L8.08 1.2H12.76L20.2 18H15.256L13.936 14.736ZM12.544 11.232L10.384 5.856L8.224 11.232H12.544ZM42.1801 4.992L37.5481 18H33.1321L30.6841 10.92L28.1401 18H23.7241L19.0921 4.992H23.4121L26.0761 12.864L28.8361 4.992H32.7241L35.4121 12.936L38.1721 4.992H42.1801ZM48.0904 18.216C47.0024 18.216 45.9304 18.096 44.8744 17.856C43.8184 17.6 42.9704 17.272 42.3304 16.872L43.6984 13.752C44.2904 14.12 44.9944 14.416 45.8104 14.64C46.6264 14.848 47.4344 14.952 48.2344 14.952C48.9704 14.952 49.4904 14.88 49.7944 14.736C50.1144 14.576 50.2744 14.352 50.2744 14.064C50.2744 13.776 50.0824 13.576 49.6984 13.464C49.3304 13.336 48.7384 13.216 47.9224 13.104C46.8824 12.976 45.9944 12.808 45.2584 12.6C44.5384 12.392 43.9144 12.008 43.3864 11.448C42.8584 10.888 42.5944 10.104 42.5944 9.096C42.5944 8.264 42.8424 7.528 43.3384 6.888C43.8344 6.232 44.5544 5.72 45.4984 5.352C46.4584 4.968 47.6024 4.776 48.9304 4.776C49.8744 4.776 50.8104 4.872 51.7384 5.064C52.6664 5.256 53.4424 5.528 54.0664 5.88L52.6984 8.976C51.5464 8.336 50.2984 8.016 48.9544 8.016C48.2344 8.016 47.7064 8.104 47.3704 8.28C47.0344 8.44 46.8664 8.656 46.8664 8.928C46.8664 9.232 47.0504 9.448 47.4184 9.576C47.7864 9.688 48.3944 9.808 49.2424 9.936C50.3144 10.096 51.2024 10.28 51.9064 10.488C52.6104 10.696 53.2184 11.08 53.7304 11.64C54.2584 12.184 54.5224 12.952 54.5224 13.944C54.5224 14.76 54.2744 15.496 53.7784 16.152C53.2824 16.792 52.5464 17.296 51.5704 17.664C50.6104 18.032 49.4504 18.216 48.0904 18.216ZM63.0154 18.216C61.6234 18.216 60.3674 17.928 59.2474 17.352C58.1274 16.776 57.2474 15.976 56.6074 14.952C55.9834 13.928 55.6714 12.768 55.6714 11.472C55.6714 10.192 55.9834 9.04 56.6074 8.016C57.2474 6.992 58.1194 6.2 59.2234 5.64C60.3434 5.064 61.6074 4.776 63.0154 4.776C64.4234 4.776 65.6874 5.064 66.8074 5.64C67.9274 6.2 68.7994 6.992 69.4234 8.016C70.0474 9.024 70.3594 10.176 70.3594 11.472C70.3594 12.768 70.0474 13.928 69.4234 14.952C68.7994 15.976 67.9274 16.776 66.8074 17.352C65.6874 17.928 64.4234 18.216 63.0154 18.216ZM63.0154 14.592C63.8154 14.592 64.4714 14.32 64.9834 13.776C65.4954 13.216 65.7514 12.448 65.7514 11.472C65.7514 10.512 65.4954 9.76 64.9834 9.216C64.4714 8.672 63.8154 8.4 63.0154 8.4C62.2154 8.4 61.5594 8.672 61.0474 9.216C60.5354 9.76 60.2794 10.512 60.2794 11.472C60.2794 12.448 60.5354 13.216 61.0474 13.776C61.5594 14.32 62.2154 14.592 63.0154 14.592ZM89.4158 4.776C91.0158 4.776 92.2878 5.256 93.2318 6.216C94.1918 7.176 94.6718 8.624 94.6718 10.56V18H90.1118V11.304C90.1118 10.392 89.9358 9.72 89.5838 9.288C89.2478 8.856 88.7678 8.64 88.1438 8.64C87.4558 8.64 86.9038 8.88 86.4878 9.36C86.0718 9.84 85.8638 10.568 85.8638 11.544V18H81.3038V11.304C81.3038 9.528 80.6478 8.64 79.3358 8.64C78.6318 8.64 78.0718 8.88 77.6558 9.36C77.2398 9.84 77.0318 10.568 77.0318 11.544V18H72.4718V4.992H76.8158V6.36C77.2958 5.832 77.8638 5.44 78.5198 5.184C79.1918 4.912 79.9198 4.776 80.7038 4.776C81.6158 4.776 82.4318 4.944 83.1518 5.28C83.8718 5.616 84.4558 6.128 84.9038 6.816C85.4158 6.16 86.0638 5.656 86.8478 5.304C87.6318 4.952 88.4878 4.776 89.4158 4.776ZM111.033 11.52C111.033 11.552 111.009 11.928 110.961 12.648H101.505C101.697 13.32 102.065 13.84 102.609 14.208C103.169 14.56 103.865 14.736 104.697 14.736C105.321 14.736 105.857 14.648 106.305 14.472C106.769 14.296 107.233 14.008 107.697 13.608L110.097 16.104C108.833 17.512 106.985 18.216 104.553 18.216C103.033 18.216 101.697 17.928 100.545 17.352C99.3934 16.776 98.4974 15.976 97.8574 14.952C97.2334 13.928 96.9214 12.768 96.9214 11.472C96.9214 10.192 97.2254 9.048 97.8334 8.04C98.4574 7.016 99.3134 6.216 100.401 5.64C101.489 5.064 102.713 4.776 104.073 4.776C105.369 4.776 106.545 5.048 107.601 5.592C108.657 6.12 109.489 6.896 110.097 7.92C110.721 8.928 111.033 10.128 111.033 11.52ZM104.097 8.016C103.393 8.016 102.801 8.216 102.321 8.616C101.857 9.016 101.561 9.56 101.433 10.248H106.761C106.633 9.56 106.329 9.016 105.849 8.616C105.385 8.216 104.801 8.016 104.097 8.016Z" fill="#3D3A3A"/>
<path d="M116.184 2.736V9.336H124.872V10.872H116.184V18H114.408V1.2H125.928V2.736H116.184ZM129.235 0.191999H130.939V18H129.235V0.191999ZM140.097 5.28C141.745 5.28 143.009 5.696 143.889 6.528C144.769 7.344 145.209 8.56 145.209 10.176V18H143.577V16.032C143.193 16.688 142.625 17.2 141.873 17.568C141.137 17.936 140.257 18.12 139.233 18.12C137.825 18.12 136.705 17.784 135.873 17.112C135.041 16.44 134.625 15.552 134.625 14.448C134.625 13.376 135.009 12.512 135.777 11.856C136.561 11.2 137.801 10.872 139.497 10.872H143.505V10.104C143.505 9.016 143.201 8.192 142.593 7.632C141.985 7.056 141.097 6.768 139.929 6.768C139.129 6.768 138.361 6.904 137.625 7.176C136.889 7.432 136.257 7.792 135.729 8.256L134.961 6.984C135.601 6.44 136.369 6.024 137.265 5.736C138.161 5.432 139.105 5.28 140.097 5.28ZM139.497 16.776C140.457 16.776 141.281 16.56 141.969 16.128C142.657 15.68 143.169 15.04 143.505 14.208V12.144H139.545C137.385 12.144 136.305 12.896 136.305 14.4C136.305 15.136 136.585 15.72 137.145 16.152C137.705 16.568 138.489 16.776 139.497 16.776ZM156.485 17.232C156.165 17.52 155.765 17.744 155.285 17.904C154.821 18.048 154.333 18.12 153.821 18.12C152.637 18.12 151.725 17.8 151.085 17.16C150.445 16.52 150.125 15.616 150.125 14.448V6.816H147.869V5.376H150.125V2.616H151.829V5.376H155.669V6.816H151.829V14.352C151.829 15.104 152.013 15.68 152.381 16.08C152.765 16.464 153.309 16.656 154.013 16.656C154.365 16.656 154.701 16.6 155.021 16.488C155.357 16.376 155.645 16.216 155.885 16.008L156.485 17.232Z" fill="#797979"/>
</svg>
