<svg width="14" height="11" viewBox="0 0 14 11" fill="none" xmlns="http://www.w3.org/2000/svg">
<g clip-path="url(#clip0)">
<path d="M13.5879 1.17004C12.7393 0.820488 11.8902 0.6875 11.0414 0.6875C8.34706 0.687285 5.65294 2.02684 2.95859 2.02684C2.28288 2.02684 1.60759 1.94262 0.931875 1.73207C0.855969 1.70844 0.779844 1.69727 0.705469 1.69727C0.329 1.69727 0 1.98344 0 2.38068V9.19682C0 9.46816 0.158156 9.72533 0.412125 9.82975C1.26066 10.1795 2.10984 10.3125 2.95859 10.3125C5.65294 10.3125 8.34728 8.97295 11.0416 8.97295C11.7173 8.97295 12.3926 9.05717 13.0683 9.26771C13.1442 9.29135 13.2204 9.30252 13.2948 9.30252C13.6712 9.30252 14.0002 9.01635 14.0002 8.6191V1.80318C14 1.53162 13.8418 1.27467 13.5879 1.17004ZM1.05 2.84066C1.49012 2.94895 1.9495 3.0033 2.422 3.03252C2.29338 3.66395 1.72812 4.13982 1.05 4.13982V2.84066ZM1.05 8.96371V7.93719C1.80184 7.93719 2.41019 8.52307 2.44366 9.25633C1.95081 9.21744 1.49012 9.12076 1.05 8.96371ZM7 7.5625C6.03334 7.5625 5.25 6.63889 5.25 5.5C5.25 4.3609 6.03356 3.4375 7 3.4375C7.96644 3.4375 8.75 4.3609 8.75 5.5C8.75 6.63932 7.96622 7.5625 7 7.5625ZM12.95 8.15934C12.5667 8.06502 12.1688 8.01217 11.7617 7.97801C11.8902 7.4177 12.3633 6.9923 12.95 6.91926V8.15934ZM12.95 3.08666C12.2743 3.00266 11.7499 2.44857 11.7292 1.7643C12.1566 1.81092 12.5624 1.89814 12.95 2.03629V3.08666Z" fill="#BDBDBD"/>
</g>
<defs>
<clipPath id="clip0">
<rect width="14" height="11" fill="white"/>
</clipPath>
</defs>
</svg>
