<svg width="230" height="138" viewBox="0 0 230 138" fill="none" xmlns="http://www.w3.org/2000/svg">
<path d="M63.25 69C79.102 69 92 56.102 92 40.25C92 24.398 79.102 11.5 63.25 11.5C47.398 11.5 34.5 24.398 34.5 40.25C34.5 56.102 47.398 69 63.25 69ZM189.75 23H109.25C106.073 23 103.5 25.5731 103.5 28.75V80.5H23V5.75C23 2.57312 20.4269 0 17.25 0H5.75C2.57312 0 0 2.57312 0 5.75V132.25C0 135.427 2.57312 138 5.75 138H17.25C20.4269 138 23 135.427 23 132.25V115H207V132.25C207 135.427 209.573 138 212.75 138H224.25C227.427 138 230 135.427 230 132.25V63.25C230 41.0191 211.981 23 189.75 23Z" />
</svg>
