<svg width="11" height="11" viewBox="0 0 11 11" fill="none" xmlns="http://www.w3.org/2000/svg">
<path d="M3.4375 6.1875H2.23438C2.13941 6.1875 2.0625 6.11059 2.0625 6.01562V5.67188C2.0625 5.57691 2.13941 5.5 2.23438 5.5H3.4375V4.125H2.23438C2.13941 4.125 2.0625 4.04809 2.0625 3.95312V3.60938C2.0625 3.51441 2.13941 3.4375 2.23438 3.4375H3.4375V2.0625H2.23438C2.13941 2.0625 2.0625 1.98559 2.0625 1.89062V1.54688C2.0625 1.45191 2.13941 1.375 2.23438 1.375H3.4375V0.6875C3.4375 0.307871 3.12963 0 2.75 0H0.6875C0.307871 0 0 0.307871 0 0.6875V10.3125C0 10.372 0.0195508 10.4251 0.0337305 10.4801L3.4375 7.07652V6.1875ZM10.3125 7.5625H9.625V8.76562C9.625 8.86059 9.54809 8.9375 9.45312 8.9375H9.10938C9.01441 8.9375 8.9375 8.86059 8.9375 8.76562V7.5625H7.5625V8.76562C7.5625 8.86059 7.48559 8.9375 7.39062 8.9375H7.04688C6.95191 8.9375 6.875 8.86059 6.875 8.76562V7.5625H5.5V8.76562C5.5 8.86059 5.42309 8.9375 5.32812 8.9375H4.98438C4.88941 8.9375 4.8125 8.86059 4.8125 8.76562V7.5625H3.92369L0.519922 10.9663C0.574922 10.9804 0.628203 11 0.6875 11H10.3125C10.6921 11 11 10.6921 11 10.3125V8.25C11 7.87037 10.6921 7.5625 10.3125 7.5625Z" fill="#BDBDBD"/>
</svg>
